<svg xmlns="http://www.w3.org/2000/svg" width="30mm" height="30mm" viewBox="0 0 30 30">
    <path d="M3.495.058c-.9.164-1.593.997-1.577 1.868v26.156c0 .978.958 1.868 1.986 1.868h22.192c1.028 0 1.986-.89 1.986-1.868l-.059-14.187a1.824 1.824 0 0 0-.525-1.343L15.526.584a2.02 2.02 0 0 0-1.402-.526H3.904a2.52 2.52 0 0 0-.41 0zm2.16 3.737h7.476l6.541 6.539 4.672 4.67v11.21H5.656z"/>
    <path d="M8.612 13.705v1.769h2.654c.506 0 .885.38.885.885v3.538c0 1.455 1.2 2.654 2.653 2.654h3.172l-.26.259a.885.885 0 0 0-.277.628v.905l.837-.005a.885.885 0 0 0 .692-.277l2.395-2.395-2.395-2.394a.885.885 0 0 0-.634-.268l-.885.002.002.84a.885.885 0 0 0 .266.677l.258.258h-3.171a.864.864 0 0 1-.884-.884V16.36a2.667 2.667 0 0 0-2.654-2.654H8.612zM17.446 11.927v.892h.004a.885.885 0 0 0 .267.627l.258.259h-3.171c-.203 0-.39.039-.58.083.426.486.762 1.041.912 1.686h2.84l-.26.259a.885.885 0 0 0-.276.7v.825l.837.003a.885.885 0 0 0 .69-.277l2.396-2.395-2.395-2.394a.885.885 0 0 0-.634-.268h-.888zM8.612 20.782v1.769h2.654c.203 0 .39-.039.58-.083-.425-.487-.761-1.041-.912-1.686z"/>
</svg>
