<?xml version="1.0" encoding="UTF-8" standalone="no"?>
<svg
   xmlns:dc="http://purl.org/dc/elements/1.1/"
   xmlns:cc="http://creativecommons.org/ns#"
   xmlns:rdf="http://www.w3.org/1999/02/22-rdf-syntax-ns#"
   xmlns:svg="http://www.w3.org/2000/svg"
   xmlns="http://www.w3.org/2000/svg"
   xmlns:sodipodi="http://sodipodi.sourceforge.net/DTD/sodipodi-0.dtd"
   xmlns:inkscape="http://www.inkscape.org/namespaces/inkscape"
   width="30mm"
   height="30mm"
   viewBox="0 0 30 30"
   version="1.1"
   id="svg707"
   inkscape:version="1.0.2 (e86c870879, 2021-01-15)"
   sodipodi:docname="com.github.jeromerobert.pdfarranger-symbolic.svg">
  <defs
     id="defs701">
    <mask
       maskUnits="userSpaceOnUse"
       id="mask672">
      <g
         id="g678">
        <path
           inkscape:connector-curvature="0"
           d="m 159.35228,169.80492 c -0.39544,0.098 -0.70033,0.59806 -0.69324,1.12121 v 15.69695 c 5e-5,0.58704 0.42129,1.12116 0.87297,1.12122 h 9.75673 c 0.45167,-6e-5 0.87292,-0.53418 0.87296,-1.12122 l -0.0257,-8.51419 c 0.005,-0.29607 -0.0727,-0.59307 -0.23107,-0.80588 l -5.26351,-7.18276 c -0.16371,-0.20596 -0.38841,-0.3222 -0.6162,-0.31533 h -4.49323 c -0.0537,-0.007 -0.12597,-0.007 -0.17973,0 z"
           id="path674"
           style="color:#000000;font-style:normal;font-variant:normal;font-weight:normal;font-stretch:normal;font-size:medium;line-height:normal;font-family:'Andale Mono';text-indent:0pt;text-align:start;text-decoration:none;text-decoration-line:none;letter-spacing:normal;word-spacing:normal;text-transform:none;direction:ltr;text-anchor:start;display:inline;overflow:visible;visibility:visible;fill:#ffffff;fill-opacity:1;stroke:none;stroke-width:2.84012;stroke-miterlimit:4;stroke-dasharray:none;marker:none;enable-background:new"
           sodipodi:nodetypes="sccccccccccss" />
        <path
           inkscape:connector-curvature="0"
           d="m 164.75012,174.05789 c -0.39544,0.0718 -0.70033,0.43811 -0.69324,0.82135 v 11.49889 c 5e-5,0.43004 0.42129,0.82131 0.87297,0.82135 h 9.75673 c 0.45167,-4e-5 0.87292,-0.39131 0.87296,-0.82135 l -0.0257,-6.23712 c 0.005,-0.21689 -0.0727,-0.43446 -0.23107,-0.59035 l -5.26351,-5.26177 c -0.16371,-0.15088 -0.38841,-0.23603 -0.6162,-0.231 h -4.49323 c -0.0537,-0.005 -0.12597,-0.005 -0.17973,0 z"
           id="path676"
           style="color:#000000;font-style:normal;font-variant:normal;font-weight:normal;font-stretch:normal;font-size:medium;line-height:normal;font-family:'Andale Mono';text-indent:0pt;text-align:start;text-decoration:none;text-decoration-line:none;letter-spacing:normal;word-spacing:normal;text-transform:none;direction:ltr;text-anchor:start;display:inline;overflow:visible;visibility:visible;fill:#000000;fill-opacity:1;stroke:none;stroke-width:2.43084;stroke-miterlimit:4;stroke-dasharray:none;marker:none;enable-background:new"
           sodipodi:nodetypes="sccccccccccss" />
      </g>
    </mask>
  </defs>
  <sodipodi:namedview
     id="base"
     pagecolor="#ffffff"
     bordercolor="#666666"
     borderopacity="1.0"
     inkscape:pageopacity="0.0"
     inkscape:pageshadow="2"
     inkscape:zoom="4.7420378"
     inkscape:cx="48.389167"
     inkscape:cy="51.932823"
     inkscape:document-units="mm"
     inkscape:current-layer="layer1"
     inkscape:document-rotation="0"
     showgrid="false"
     fit-margin-top="0"
     fit-margin-left="0"
     fit-margin-right="0"
     fit-margin-bottom="0"
     inkscape:window-width="1530"
     inkscape:window-height="991"
     inkscape:window-x="26"
     inkscape:window-y="23"
     inkscape:window-maximized="0" />
  <metadata
     id="metadata704">
    <rdf:RDF>
      <cc:Work
         rdf:about="">
        <dc:format>image/svg+xml</dc:format>
        <dc:type
           rdf:resource="http://purl.org/dc/dcmitype/StillImage" />
        <dc:title />
      </cc:Work>
    </rdf:RDF>
  </metadata>
  <g
     inkscape:label="Layer 1"
     inkscape:groupmode="layer"
     id="layer1"
     transform="translate(-83.983448,-50.712004)">
    <path
       id="path14007"
       clip-path="none"
       mask="none"
       style="color:#000000;font-style:normal;font-variant:normal;font-weight:normal;font-stretch:normal;font-size:medium;line-height:normal;font-family:'Andale Mono';text-indent:0pt;text-align:start;text-decoration:none;text-decoration-line:none;letter-spacing:normal;word-spacing:normal;text-transform:none;direction:ltr;text-anchor:start;display:inline;overflow:visible;visibility:visible;fill:#7b7b80;fill-opacity:1;stroke:none;stroke-width:4.59367;stroke-miterlimit:4;stroke-dasharray:none;marker:none;enable-background:new"
       d="m 85.591733,51.746334 c -0.747287,0.135802 -1.323439,0.828683 -1.31005,1.552914 v 21.729186 c 9.2e-5,0.812665 0.796143,1.552063 1.649711,1.55212 h 18.437686 c 0.85354,-5.7e-5 1.64962,-0.739455 1.64967,-1.55212 l -0.0482,-11.786555 c 0.009,-0.409887 -0.13744,-0.821028 -0.43668,-1.115618 l -9.946676,-9.94339 c -0.309372,-0.285142 -0.733988,-0.446034 -1.164465,-0.436537 h -8.491051 c -0.101427,-0.0092 -0.238079,-0.0092 -0.339647,0 z m 1.795259,3.104282 h 6.210577 l 5.434279,5.432493 3.881632,3.880339 V 73.4763 H 87.386992 Z" />
    <path
       inkscape:connector-curvature="0"
       d="m 93.258418,54.850355 c -0.747273,0.135801 -1.323446,0.82791 -1.31005,1.552134 v 21.729944 c 9.2e-5,0.812665 0.796143,1.552063 1.64969,1.552141 h 18.437722 c 0.85353,-7.8e-5 1.64958,-0.739476 1.64966,-1.552141 l -0.0489,-11.786555 c 0.009,-0.409887 -0.13743,-0.821014 -0.43668,-1.115604 l -9.94634,-9.943403 c -0.30938,-0.285142 -0.734,-0.446035 -1.16445,-0.436537 h -8.491059 c -0.101426,-0.0092 -0.238079,-0.0092 -0.339647,0 z m 1.795238,3.104253 h 6.210594 l 5.43426,5.4325 3.88163,3.880338 v 9.312867 H 95.053656 Z"
       id="path14007-5-3"
       style="color:#000000;font-style:normal;font-variant:normal;font-weight:normal;font-stretch:normal;font-size:medium;line-height:normal;font-family:'Andale Mono';text-indent:0pt;text-align:start;text-decoration:none;text-decoration-line:none;letter-spacing:normal;word-spacing:normal;text-transform:none;direction:ltr;text-anchor:start;display:inline;overflow:visible;visibility:visible;fill:#000000;fill-opacity:1;stroke:none;stroke-width:4.59367;stroke-miterlimit:4;stroke-dasharray:none;marker:none;enable-background:new" />
  </g>
</svg>
