<?xml version="1.0" encoding="UTF-8" standalone="no"?>
<svg
   xmlns:dc="http://purl.org/dc/elements/1.1/"
   xmlns:cc="http://creativecommons.org/ns#"
   xmlns:rdf="http://www.w3.org/1999/02/22-rdf-syntax-ns#"
   xmlns:svg="http://www.w3.org/2000/svg"
   xmlns="http://www.w3.org/2000/svg"
   xmlns:sodipodi="http://sodipodi.sourceforge.net/DTD/sodipodi-0.dtd"
   xmlns:inkscape="http://www.inkscape.org/namespaces/inkscape"
   width="30mm"
   height="30mm"
   viewBox="0 0 30 30"
   version="1.1"
   id="svg707"
   inkscape:version="1.0.2 (e86c870879, 2021-01-15)"
   sodipodi:docname="com.github.jeromerobert.pdfarranger-symbolic.svg">
  <defs
     id="defs701">
    <mask
       maskUnits="userSpaceOnUse"
       id="mask672">
      <g
         id="g678">
        <path
           inkscape:connector-curvature="0"
           d="m 159.35228,169.80492 c -0.39544,0.098 -0.70033,0.59806 -0.69324,1.12121 v 15.69695 c 5e-5,0.58704 0.42129,1.12116 0.87297,1.12122 h 9.75673 c 0.45167,-6e-5 0.87292,-0.53418 0.87296,-1.12122 l -0.0257,-8.51419 c 0.005,-0.29607 -0.0727,-0.59307 -0.23107,-0.80588 l -5.26351,-7.18276 c -0.16371,-0.20596 -0.38841,-0.3222 -0.6162,-0.31533 h -4.49323 c -0.0537,-0.007 -0.12597,-0.007 -0.17973,0 z"
           id="path674"
           style="color:#000000;font-style:normal;font-variant:normal;font-weight:normal;font-stretch:normal;font-size:medium;line-height:normal;font-family:'Andale Mono';text-indent:0pt;text-align:start;text-decoration:none;text-decoration-line:none;letter-spacing:normal;word-spacing:normal;text-transform:none;direction:ltr;text-anchor:start;display:inline;overflow:visible;visibility:visible;fill:#ffffff;fill-opacity:1;stroke:none;stroke-width:2.84012;stroke-miterlimit:4;stroke-dasharray:none;marker:none;enable-background:new"
           sodipodi:nodetypes="sccccccccccss" />
        <path
           inkscape:connector-curvature="0"
           d="m 164.75012,174.05789 c -0.39544,0.0718 -0.70033,0.43811 -0.69324,0.82135 v 11.49889 c 5e-5,0.43004 0.42129,0.82131 0.87297,0.82135 h 9.75673 c 0.45167,-4e-5 0.87292,-0.39131 0.87296,-0.82135 l -0.0257,-6.23712 c 0.005,-0.21689 -0.0727,-0.43446 -0.23107,-0.59035 l -5.26351,-5.26177 c -0.16371,-0.15088 -0.38841,-0.23603 -0.6162,-0.231 h -4.49323 c -0.0537,-0.005 -0.12597,-0.005 -0.17973,0 z"
           id="path676"
           style="color:#000000;font-style:normal;font-variant:normal;font-weight:normal;font-stretch:normal;font-size:medium;line-height:normal;font-family:'Andale Mono';text-indent:0pt;text-align:start;text-decoration:none;text-decoration-line:none;letter-spacing:normal;word-spacing:normal;text-transform:none;direction:ltr;text-anchor:start;display:inline;overflow:visible;visibility:visible;fill:#000000;fill-opacity:1;stroke:none;stroke-width:2.43084;stroke-miterlimit:4;stroke-dasharray:none;marker:none;enable-background:new"
           sodipodi:nodetypes="sccccccccccss" />
      </g>
    </mask>
  </defs>
  <sodipodi:namedview
     id="base"
     pagecolor="#ffffff"
     bordercolor="#666666"
     borderopacity="1.0"
     inkscape:pageopacity="0.0"
     inkscape:pageshadow="2"
     inkscape:zoom="4.7420378"
     inkscape:cx="65.786751"
     inkscape:cy="43.365831"
     inkscape:document-units="mm"
     inkscape:current-layer="layer1"
     inkscape:document-rotation="0"
     showgrid="false"
     fit-margin-top="0"
     fit-margin-left="0"
     fit-margin-right="0"
     fit-margin-bottom="0"
     inkscape:window-width="1561"
     inkscape:window-height="991"
     inkscape:window-x="26"
     inkscape:window-y="23"
     inkscape:window-maximized="0" />
  <metadata
     id="metadata704">
    <rdf:RDF>
      <cc:Work
         rdf:about="">
        <dc:format>image/svg+xml</dc:format>
        <dc:type
           rdf:resource="http://purl.org/dc/dcmitype/StillImage" />
        <dc:title></dc:title>
      </cc:Work>
    </rdf:RDF>
  </metadata>
  <g
     inkscape:label="Layer 1"
     inkscape:groupmode="layer"
     id="layer1"
     transform="translate(-83.983448,-50.712004)">
    <g
       id="g1674"
       transform="matrix(1.2036566,0,0,1.2036566,-24.772659,-15.250758)">
      <path
         inkscape:connector-curvature="0"
         d="m 93.258418,54.850355 c -0.747273,0.135801 -1.323446,0.82791 -1.31005,1.552134 v 21.729944 c 9.2e-5,0.812665 0.796143,1.552063 1.64969,1.552141 h 18.437722 c 0.85353,-7.8e-5 1.64958,-0.739476 1.64966,-1.552141 l -0.0489,-11.786555 c 0.009,-0.409887 -0.13743,-0.821014 -0.43668,-1.115604 l -9.94634,-9.943403 c -0.30938,-0.285142 -0.734,-0.446035 -1.16445,-0.436537 h -8.491059 c -0.101426,-0.0092 -0.238079,-0.0092 -0.339647,0 z m 1.795238,3.104253 h 6.210594 l 5.43426,5.4325 3.88163,3.880338 v 9.312867 H 95.053656 Z"
         id="path14007-5-3"
         style="color:#000000;font-style:normal;font-variant:normal;font-weight:normal;font-stretch:normal;font-size:medium;line-height:normal;font-family:'Andale Mono';text-indent:0pt;text-align:start;text-decoration:none;text-decoration-line:none;letter-spacing:normal;word-spacing:normal;text-transform:none;direction:ltr;text-anchor:start;display:inline;overflow:visible;visibility:visible;fill:#000000;fill-opacity:1;stroke:none;stroke-width:4.59367;stroke-miterlimit:4;stroke-dasharray:none;marker:none;enable-background:new" />
      <g
         fill="#474747"
         id="g1653"
         transform="matrix(0.73494968,0,0,0.73494968,96.774702,63.983078)"
         style="fill:#000000;stroke:#000000;stroke-width:0.136064;stroke-miterlimit:4;stroke-dasharray:none;stroke-opacity:1">
        <path
           d="m 1,3 v 2 h 3 c 0.572,0 1,0.429 1,1 v 4 c 0,1.645 1.356,3 3,3 h 6 V 11 H 8 C 7.429,11 7,10.571 7,10 V 6 C 7,4.355 5.645,3 4,3 Z"
           style="line-height:normal;font-variant-ligatures:normal;font-variant-position:normal;font-variant-caps:normal;font-variant-numeric:normal;font-variant-alternates:normal;font-feature-settings:normal;text-indent:0;text-align:start;text-decoration:none;text-decoration-line:none;text-decoration-style:solid;text-decoration-color:#000000;text-transform:none;text-orientation:mixed;shape-padding:0;isolation:auto;mix-blend-mode:normal;fill:#000000;stroke:#000000;stroke-width:0.136064;stroke-miterlimit:4;stroke-dasharray:none;stroke-opacity:1;marker:none"
           color="#bebebe"
           font-weight="400"
           font-family="sans-serif"
           overflow="visible"
           id="path1645" />
        <path
           d="m 11.99,8.99 a 1,1 0 0 0 -0.697,1.717 L 12.586,12 11.293,13.293 a 1,1 0 1 0 1.414,1.414 L 15.414,12 12.707,9.293 A 1,1 0 0 0 11.99,8.99 Z m 0,-8 A 1,1 0 0 0 11.293,2.707 L 12.586,4 11.293,5.293 a 1,1 0 1 0 1.414,1.414 L 15.414,4 12.707,1.293 A 1,1 0 0 0 11.99,0.99 Z"
           style="line-height:normal;font-variant-ligatures:normal;font-variant-position:normal;font-variant-caps:normal;font-variant-numeric:normal;font-variant-alternates:normal;font-feature-settings:normal;text-indent:0;text-align:start;text-decoration:none;text-decoration-line:none;text-decoration-style:solid;text-decoration-color:#000000;text-transform:none;text-orientation:mixed;shape-padding:0;isolation:auto;mix-blend-mode:normal;fill:#000000;stroke:#000000;stroke-width:0.136064;stroke-miterlimit:4;stroke-dasharray:none;stroke-opacity:1;marker:none"
           color="#bebebe"
           font-weight="400"
           font-family="sans-serif"
           overflow="visible"
           id="path1647" />
        <path
           d="M 8,3 C 7.77,3 7.56,3.044 7.344,3.094 7.825,3.644 8.205,4.271 8.375,5 H 14 V 3 Z m -7,8 v 2 H 4 C 4.23,13 4.44,12.956 4.656,12.906 4.175,12.356 3.795,11.729 3.625,11 Z"
           style="line-height:normal;text-indent:0;text-align:start;text-decoration:none;text-decoration-line:none;text-transform:none;fill:#000000;stroke:#000000;stroke-width:0.136064;stroke-miterlimit:4;stroke-dasharray:none;stroke-opacity:1;marker:none"
           color="#bebebe"
           font-weight="400"
           font-family="'Andale Mono'"
           overflow="visible"
           id="path1649" />
        <path
           d="m 11,9 h 1 v 1 h -1 z m 0,5 h 1 v 1 H 11 Z M 11,1 h 1 v 1 h -1 z m 0,5 h 1 v 1 h -1 z"
           style="fill:#000000;stroke:#000000;stroke-width:0.136064;stroke-miterlimit:4;stroke-dasharray:none;stroke-opacity:1;marker:none"
           color="#000000"
           overflow="visible"
           id="path1651" />
      </g>
    </g>
  </g>
</svg>
