<svg xmlns="http://www.w3.org/2000/svg" xmlns:xlink="http://www.w3.org/1999/xlink" width="300" height="300" version="1"><defs><linearGradient id="f"><stop offset="0" stop-color="#4d4d4d"/><stop offset="1" stop-color="#4d4d4d" stop-opacity="0"/></linearGradient><linearGradient id="e"><stop offset="0" stop-color="#d3d7cf"/><stop offset="1" stop-color="#3465a4"/></linearGradient><linearGradient id="d"><stop offset="0" stop-color="#ef2929"/><stop offset="1" stop-color="#a40000"/></linearGradient><linearGradient id="c"><stop offset="0" stop-color="#ad7fa8"/><stop offset="1" stop-color="#5c3566"/></linearGradient><linearGradient id="b"><stop offset="0" stop-color="#fcaf3e"/><stop offset="1" stop-color="#ce5c00"/></linearGradient><linearGradient id="a"><stop offset="0" stop-color="#8ae234"/><stop offset="1" stop-color="#4e9a06"/></linearGradient><linearGradient id="j" x1="18" x2="201" y1="121" y2="119" gradientTransform="matrix(1.25455 0 0 1.25477 -9 -4)" gradientUnits="userSpaceOnUse" xlink:href="#a"/><linearGradient id="i" x1="1" x2="170" y1="110" y2="110" gradientTransform="matrix(1.25455 0 0 1.25477 3 -16)" gradientUnits="userSpaceOnUse" xlink:href="#b"/><linearGradient id="h" x1="22" x2="154" y1="99" y2="99" gradientTransform="matrix(1.25455 0 0 1.25477 -5 -22)" gradientUnits="userSpaceOnUse" xlink:href="#c"/><linearGradient id="g" x1="13" x2="125" y1="101" y2="101" gradientTransform="matrix(1.25455 0 0 1.25477 -5 -33)" gradientUnits="userSpaceOnUse" xlink:href="#d"/><radialGradient id="k" cx="189" cy="134" r="111" fx="189" fy="134" gradientTransform="matrix(1.113 .6427 -.52605 .9113 45 -48)" gradientUnits="userSpaceOnUse" xlink:href="#e"/></defs><rect width="138" height="160" x="12" y="14" fill="url(#g)" ry="7" transform="matrix(.99662 -.08213 .04225 .9991 0 0)"/><path fill="url(#h)" d="M57 18l123 2c4 1 7 4 7 8l-16 152c0 4-3 7-7 7l-132-8c-4 0-7-4-8-7L50 25c0-4 3-7 7-7z"/><path fill="url(#i)" d="M101 27l107 30c4 1 7 4 7 8l-57 145c0 4-3 7-6 6L14 176c-5-2-10-4-8-10L93 33c2-3 4-6 8-6z"/><path fill="url(#j)" d="M119 44l116 35c4 0 7 3 7 7l-61 155c-2 4-6 8-10 7L18 193c-5-2-8-5-5-10l94-132c3-3 3-7 12-7z"/><path fill="url(#k)" d="M81 97l121-22c4-2 8 0 9 4l83 153c2 3 0 7-4 8l-119 57c-4 2-8 0-10-4L77 105c-2-3 0-7 4-8z"/><text x="38" y="155" font-family="Bitstream Vera Sans" font-weight="400" transform="matrix(.98153 -.1909 .39487 .94202 0 0)" style="line-height:0%"><tspan style="line-height:1.25;-inkscape-font-specification:'Bitstream Vera Sans Bold'" x="38" y="155" font-size="46" font-weight="700">PDF</tspan></text><text style="line-height:0%" x="-163" y="-291" font-family="Bitstream Vera Sans" font-weight="400" transform="matrix(-.9194 .38816 -.41898 -.91078 0 0)"><tspan style="line-height:1.25;-inkscape-font-specification:'Bitstream Vera Sans Bold'" x="-163" y="-291" font-size="46" font-weight="700">PDF</tspan></text></svg>