<?xml version="1.0" encoding="UTF-8"?>
<svg xmlns="http://www.w3.org/2000/svg" xmlns:xlink="http://www.w3.org/1999/xlink" width="128px" height="128px" viewBox="0 0 128 128" version="1.1">
<defs>
<linearGradient id="linear0" gradientUnits="userSpaceOnUse" x1="20" y1="238" x2="108" y2="238" gradientTransform="matrix(0.906186,-0.242812,0.237951,0.888045,-62.216267,-128.980712)">
<stop offset="0" style="stop-color:rgb(14.509805%,36.078432%,62.352943%);stop-opacity:1;"/>
<stop offset="0.0454546" style="stop-color:rgb(18.039216%,45.09804%,78.039217%);stop-opacity:1;"/>
<stop offset="0.0909091" style="stop-color:rgb(14.509805%,36.078432%,62.352943%);stop-opacity:1;"/>
<stop offset="0.909091" style="stop-color:rgb(14.509805%,36.078432%,62.352943%);stop-opacity:1;"/>
<stop offset="0.954545" style="stop-color:rgb(18.039216%,45.09804%,78.039217%);stop-opacity:1;"/>
<stop offset="1" style="stop-color:rgb(14.509805%,36.078432%,62.352943%);stop-opacity:1;"/>
</linearGradient>
<linearGradient id="linear1" gradientUnits="userSpaceOnUse" x1="20" y1="238" x2="108" y2="238" gradientTransform="matrix(0.938153,0,0,0.919372,4.066887,-153.930579)">
<stop offset="0" style="stop-color:rgb(44.705883%,19.215687%,50.980395%);stop-opacity:1;"/>
<stop offset="0.0454546" style="stop-color:rgb(57.254905%,24.705882%,65.490198%);stop-opacity:1;"/>
<stop offset="0.0909091" style="stop-color:rgb(44.705883%,19.215687%,50.980395%);stop-opacity:1;"/>
<stop offset="0.909091" style="stop-color:rgb(44.705883%,19.215687%,50.980395%);stop-opacity:1;"/>
<stop offset="0.954545" style="stop-color:rgb(57.254905%,24.705882%,65.490198%);stop-opacity:1;"/>
<stop offset="1" style="stop-color:rgb(44.705883%,19.215687%,50.980395%);stop-opacity:1;"/>
</linearGradient>
<linearGradient id="linear2" gradientUnits="userSpaceOnUse" x1="20" y1="238" x2="108" y2="238" gradientTransform="matrix(0.906186,0.242812,-0.237951,0.888045,74.225694,-160.060655)">
<stop offset="0" style="stop-color:rgb(13.725491%,57.254905%,33.333334%);stop-opacity:1;"/>
<stop offset="0.0454546" style="stop-color:rgb(18.039216%,76.862746%,44.705883%);stop-opacity:1;"/>
<stop offset="0.0909091" style="stop-color:rgb(13.725491%,57.254905%,33.333334%);stop-opacity:1;"/>
<stop offset="0.909091" style="stop-color:rgb(13.725491%,57.254905%,33.333334%);stop-opacity:1;"/>
<stop offset="0.954545" style="stop-color:rgb(18.039216%,76.862746%,44.705883%);stop-opacity:1;"/>
<stop offset="1" style="stop-color:rgb(13.725491%,57.254905%,33.333334%);stop-opacity:1;"/>
</linearGradient>
</defs>
<g id="surface2700">
<path style=" stroke:none;fill-rule:nonzero;fill:url(#linear0);" d="M 18.835938 72.023438 L 84.082031 54.539062 C 88.085938 53.46875 92.183594 55.777344 93.234375 59.703125 L 103.230469 97 C 104.28125 100.925781 101.886719 104.972656 97.882812 106.046875 L 32.640625 123.53125 C 28.636719 124.601562 24.535156 122.292969 23.484375 118.367188 L 13.492188 81.070312 C 12.441406 77.144531 14.832031 73.097656 18.835938 72.023438 Z M 18.835938 72.023438 "/>
<path style=" stroke:none;fill-rule:nonzero;fill:rgb(20.784314%,51.764709%,89.411765%);fill-opacity:1;" d="M 5.421875 21.953125 L 70.667969 4.472656 C 74.671875 3.398438 78.785156 5.773438 79.859375 9.777344 L 102.199219 93.148438 C 103.269531 97.152344 100.894531 101.265625 96.890625 102.339844 L 31.644531 119.820312 C 27.640625 120.894531 23.527344 118.519531 22.453125 114.515625 L 0.113281 31.144531 C -0.957031 27.140625 1.417969 23.027344 5.421875 21.953125 Z M 5.421875 21.953125 "/>
<path style=" stroke:none;fill-rule:nonzero;fill:rgb(8.235294%,20.392157%,35.686275%);fill-opacity:1;" d="M 24.191406 97.21875 L 27.324219 108.910156 L 87.640625 92.75 L 86.386719 88.074219 L 93.925781 86.050781 L 92.046875 79.039062 Z M 24.191406 97.21875 "/>
<path style=" stroke:none;fill-rule:evenodd;fill:rgb(8.235294%,20.392157%,35.686275%);fill-opacity:1;" d="M 6.648438 31.753906 L 7.902344 36.429688 L 45.597656 26.328125 L 44.347656 21.652344 Z M 6.648438 31.753906 "/>
<path style=" stroke:none;fill-rule:nonzero;fill:rgb(8.235294%,20.392157%,35.686275%);fill-opacity:1;" d="M 16.046875 66.824219 L 49.972656 57.734375 L 55.613281 78.777344 L 40.53125 82.816406 L 41.785156 87.492188 L 22.9375 92.542969 Z M 44.960938 39.027344 L 48.71875 53.058594 L 14.792969 62.148438 L 9.152344 41.105469 L 77.011719 22.921875 L 78.890625 29.9375 Z M 44.960938 39.027344 "/>
<path style=" stroke:none;fill-rule:nonzero;fill:rgb(14.509805%,36.078432%,62.352943%);fill-opacity:1;" d="M 23.945312 96.3125 L 27.078125 108.003906 L 87.394531 91.84375 L 86.144531 87.167969 L 93.683594 85.144531 L 91.804688 78.132812 Z M 23.945312 96.3125 "/>
<path style=" stroke:none;fill-rule:evenodd;fill:rgb(14.509805%,36.078432%,62.352943%);fill-opacity:1;" d="M 6.40625 30.847656 L 7.660156 35.523438 L 45.355469 25.421875 L 44.101562 20.746094 Z M 6.40625 30.847656 "/>
<path style=" stroke:none;fill-rule:nonzero;fill:rgb(14.509805%,36.078432%,62.352943%);fill-opacity:1;" d="M 15.804688 65.917969 L 49.730469 56.828125 L 55.371094 77.871094 L 40.289062 81.910156 L 41.542969 86.585938 L 22.695312 91.636719 Z M 44.71875 38.121094 L 48.476562 52.152344 L 14.550781 61.242188 L 8.910156 40.199219 L 76.765625 22.015625 L 78.648438 29.03125 Z M 44.71875 38.121094 "/>
<path style=" stroke:none;fill-rule:nonzero;fill:url(#linear1);" d="M 30.335938 61.203125 L 97.882812 61.203125 C 102.027344 61.203125 105.386719 64.496094 105.386719 68.558594 L 105.386719 107.171875 C 105.386719 111.234375 102.027344 114.527344 97.882812 114.527344 L 30.335938 114.527344 C 26.191406 114.527344 22.828125 111.234375 22.828125 107.171875 L 22.828125 68.558594 C 22.828125 64.496094 26.191406 61.203125 30.335938 61.203125 Z M 30.335938 61.203125 "/>
<path style=" stroke:none;fill-rule:nonzero;fill:rgb(63.921571%,27.843139%,72.941178%);fill-opacity:1;" d="M 30.335938 9.367188 L 97.882812 9.367188 C 102.027344 9.367188 105.386719 12.726562 105.386719 16.871094 L 105.386719 103.183594 C 105.386719 107.328125 102.027344 110.6875 97.882812 110.6875 L 30.335938 110.6875 C 26.191406 110.6875 22.828125 107.328125 22.828125 103.183594 L 22.828125 16.871094 C 22.828125 12.726562 26.191406 9.367188 30.335938 9.367188 Z M 30.335938 9.367188 "/>
<path style=" stroke:none;fill-rule:nonzero;fill:rgb(25.490198%,10.980392%,29.019609%);fill-opacity:1;" d="M 28.984375 86.925781 L 28.984375 99.027344 L 91.429688 99.027344 L 91.429688 94.1875 L 99.234375 94.1875 L 99.234375 86.925781 Z M 28.984375 86.925781 "/>
<path style=" stroke:none;fill-rule:evenodd;fill:rgb(25.490198%,10.980392%,29.019609%);fill-opacity:1;" d="M 28.984375 19.148438 L 28.984375 23.992188 L 68.011719 23.992188 L 68.011719 19.148438 Z M 28.984375 19.148438 "/>
<path style=" stroke:none;fill-rule:nonzero;fill:rgb(25.490198%,10.980392%,29.019609%);fill-opacity:1;" d="M 28.984375 55.457031 L 64.109375 55.457031 L 64.109375 77.242188 L 48.496094 77.242188 L 48.496094 82.085938 L 28.984375 82.085938 Z M 64.109375 36.09375 L 64.109375 50.617188 L 28.984375 50.617188 L 28.984375 28.832031 L 99.234375 28.832031 L 99.234375 36.09375 Z M 64.109375 36.09375 "/>
<path style=" stroke:none;fill-rule:nonzero;fill:rgb(44.705883%,19.215687%,50.980395%);fill-opacity:1;" d="M 28.984375 85.988281 L 28.984375 98.089844 L 91.429688 98.089844 L 91.429688 93.25 L 99.234375 93.25 L 99.234375 85.988281 Z M 28.984375 85.988281 "/>
<path style=" stroke:none;fill-rule:evenodd;fill:rgb(44.705883%,19.215687%,50.980395%);fill-opacity:1;" d="M 28.984375 18.210938 L 28.984375 23.054688 L 68.011719 23.054688 L 68.011719 18.210938 Z M 28.984375 18.210938 "/>
<path style=" stroke:none;fill-rule:nonzero;fill:rgb(44.705883%,19.215687%,50.980395%);fill-opacity:1;" d="M 28.984375 54.519531 L 64.109375 54.519531 L 64.109375 76.304688 L 48.496094 76.304688 L 48.496094 81.148438 L 28.984375 81.148438 Z M 64.109375 35.15625 L 64.109375 49.679688 L 28.984375 49.679688 L 28.984375 27.894531 L 99.234375 27.894531 L 99.234375 35.15625 Z M 64.109375 35.15625 "/>
<path style=" stroke:none;fill-rule:nonzero;fill:url(#linear2);" d="M 43.917969 54.539062 L 109.164062 72.023438 C 113.167969 73.097656 115.5625 77.144531 114.511719 81.070312 L 104.515625 118.367188 C 103.464844 122.292969 99.367188 124.601562 95.363281 123.53125 L 30.117188 106.046875 C 26.113281 104.972656 23.71875 100.925781 24.769531 97 L 34.765625 59.703125 C 35.816406 55.777344 39.914062 53.46875 43.917969 54.539062 Z M 43.917969 54.539062 "/>
<path style=" stroke:none;fill-rule:nonzero;fill:rgb(20%,81.960785%,47.843137%);fill-opacity:1;" d="M 57.335938 4.472656 L 122.578125 21.953125 C 126.582031 23.027344 128.960938 27.140625 127.886719 31.144531 L 105.546875 114.515625 C 104.476562 118.519531 100.359375 120.894531 96.355469 119.820312 L 31.109375 102.339844 C 27.105469 101.265625 24.730469 97.152344 25.804688 93.148438 L 48.140625 9.777344 C 49.214844 5.773438 53.332031 3.398438 57.335938 4.472656 Z M 57.335938 4.472656 "/>
<path style=" stroke:none;fill-rule:nonzero;fill:rgb(7.843138%,32.549021%,18.82353%);fill-opacity:1;" d="M 35.957031 79.039062 L 32.824219 90.726562 L 93.140625 106.890625 L 94.390625 102.214844 L 101.933594 104.234375 L 103.8125 97.21875 Z M 35.957031 79.039062 "/>
<path style=" stroke:none;fill-rule:evenodd;fill:rgb(7.843138%,32.549021%,18.82353%);fill-opacity:1;" d="M 53.496094 13.570312 L 52.246094 18.246094 L 89.941406 28.347656 L 91.195312 23.671875 Z M 53.496094 13.570312 "/>
<path style=" stroke:none;fill-rule:nonzero;fill:rgb(7.843138%,32.549021%,18.82353%);fill-opacity:1;" d="M 44.101562 48.644531 L 78.027344 57.734375 L 72.390625 78.777344 L 57.308594 74.734375 L 56.058594 79.414062 L 37.207031 74.363281 Z M 83.039062 39.027344 L 79.28125 53.058594 L 45.351562 43.964844 L 50.992188 22.921875 L 118.847656 41.105469 L 116.96875 48.121094 Z M 83.039062 39.027344 "/>
<path style=" stroke:none;fill-rule:nonzero;fill:rgb(13.725491%,57.254905%,33.333334%);fill-opacity:1;" d="M 36.199219 78.132812 L 33.066406 89.820312 L 93.382812 105.984375 L 94.636719 101.308594 L 102.175781 103.328125 L 104.054688 96.3125 Z M 36.199219 78.132812 "/>
<path style=" stroke:none;fill-rule:evenodd;fill:rgb(13.725491%,57.254905%,33.333334%);fill-opacity:1;" d="M 53.738281 12.664062 L 52.488281 17.339844 L 90.183594 27.441406 L 91.4375 22.765625 Z M 53.738281 12.664062 "/>
<path style=" stroke:none;fill-rule:nonzero;fill:rgb(13.725491%,57.254905%,33.333334%);fill-opacity:1;" d="M 44.34375 47.738281 L 78.269531 56.828125 L 72.632812 77.871094 L 57.554688 73.828125 L 56.300781 78.507812 L 37.453125 73.457031 Z M 83.28125 38.121094 L 79.523438 52.152344 L 45.59375 43.058594 L 51.234375 22.015625 L 119.089844 40.199219 L 117.210938 47.214844 Z M 83.28125 38.121094 "/>
<path style=" stroke:none;fill-rule:nonzero;fill:rgb(7.843138%,32.549021%,18.82353%);fill-opacity:1;" d="M 84.933594 45.707031 L 115.425781 53.878906 L 106.316406 87.867188 L 75.824219 79.695312 Z M 84.933594 45.707031 "/>
<path style=" stroke:none;fill-rule:nonzero;fill:rgb(13.725491%,57.254905%,33.333334%);fill-opacity:1;" d="M 85.5 43.589844 L 115.992188 51.757812 L 106.558594 86.960938 L 76.066406 78.789062 Z M 85.5 43.589844 "/>
<path style=" stroke:none;fill-rule:nonzero;fill:rgb(7.843138%,32.549021%,18.82353%);fill-opacity:1;" d="M 106.828125 75.054688 L 102.832031 70.625 C 102.648438 70.363281 102.328125 70.234375 102.015625 70.289062 C 101.699219 70.347656 101.445312 70.578125 101.363281 70.886719 L 100.722656 73.28125 L 99.386719 72.921875 C 98.28125 72.625 97.417969 71.792969 97.082031 70.699219 L 94.132812 61.054688 C 93.464844 58.863281 91.742188 57.203125 89.527344 56.609375 L 85.003906 55.394531 L 84.195312 58.40625 L 88.105469 59.480469 C 90.046875 60.015625 90.605469 60.390625 90.871094 61.636719 L 93.925781 71.664062 C 94.597656 73.855469 95.78125 75.15625 97.988281 75.769531 L 99.941406 76.308594 L 99.277344 78.609375 C 99.1875 78.917969 99.296875 79.25 99.542969 79.457031 C 99.636719 79.535156 99.746094 79.589844 99.859375 79.621094 C 100.042969 79.671875 100.242188 79.65625 100.417969 79.574219 L 106.5 76.847656 C 106.722656 76.746094 106.886719 76.550781 106.953125 76.3125 C 107.015625 76.078125 106.972656 75.253906 106.828125 75.054688 Z M 106.828125 75.054688 "/>
<path style=" stroke:none;fill-rule:nonzero;fill:rgb(7.843138%,32.549021%,18.82353%);fill-opacity:1;" d="M 110.425781 62.558594 L 110.007812 61.941406 C 109.824219 61.679688 105.746094 57.476562 105.433594 57.535156 C 105.117188 57.585938 104.863281 57.820312 104.78125 58.132812 L 104.140625 60.523438 L 102.804688 60.164062 C 100.589844 59.570312 98.171875 59.558594 96.496094 61.121094 L 96.082031 61.507812 L 97.253906 65.613281 L 98.84375 64.128906 C 100.089844 62.972656 100.628906 62.566406 101.953125 62.972656 L 103.375 63.410156 L 102.695312 65.894531 C 102.609375 66.203125 102.714844 66.53125 102.960938 66.738281 C 103.054688 66.816406 103.164062 66.871094 103.277344 66.902344 C 103.460938 66.953125 103.660156 66.9375 103.835938 66.855469 L 110.179688 63.980469 C 110.402344 63.878906 110.566406 63.679688 110.628906 63.445312 C 110.695312 63.207031 110.566406 62.761719 110.425781 62.558594 Z M 110.425781 62.558594 "/>
<path style=" stroke:none;fill-rule:nonzero;fill:rgb(7.843138%,32.549021%,18.82353%);fill-opacity:1;" d="M 92.121094 69.671875 L 89.21875 68.589844 C 88.378906 69.371094 87.214844 69.660156 86.109375 69.363281 L 81.585938 68.152344 L 80.777344 71.132812 L 85.359375 72.269531 C 87.585938 72.824219 89.792969 72.566406 91.46875 71.003906 L 92.105469 70.472656 Z M 92.121094 69.671875 "/>
<path style=" stroke:none;fill-rule:nonzero;fill:rgb(20%,81.960785%,47.843137%);fill-opacity:1;" d="M 106.792969 74.988281 L 103.078125 69.71875 C 102.890625 69.457031 102.570312 69.328125 102.257812 69.382812 C 101.941406 69.441406 101.6875 69.671875 101.605469 69.980469 L 100.964844 72.375 L 99.628906 72.015625 C 98.523438 71.71875 97.34375 70.480469 97.007812 69.386719 L 94.375 60.148438 C 93.707031 57.957031 91.984375 56.296875 89.769531 55.703125 L 85.246094 54.488281 L 84.394531 57.679688 L 88.917969 58.890625 C 90.023438 59.1875 90.882812 60.019531 91.21875 61.113281 L 94.261719 70.890625 C 94.933594 73.082031 95.808594 74.410156 98.773438 75.203125 L 100.109375 75.5625 L 99.46875 77.953125 C 99.386719 78.265625 99.488281 78.59375 99.734375 78.800781 C 99.828125 78.878906 99.9375 78.933594 100.050781 78.964844 C 100.234375 79.015625 100.433594 79 100.613281 78.917969 L 106.464844 76.210938 C 106.6875 76.109375 106.851562 75.914062 106.914062 75.675781 C 106.976562 75.441406 106.933594 75.1875 106.792969 74.988281 Z M 106.792969 74.988281 "/>
<path style=" stroke:none;fill-rule:nonzero;fill:rgb(20%,81.960785%,47.843137%);fill-opacity:1;" d="M 110.210938 62.230469 L 106.496094 56.964844 C 106.308594 56.703125 105.988281 56.570312 105.675781 56.628906 C 105.359375 56.679688 105.105469 56.914062 105.023438 57.226562 L 104.382812 59.617188 L 103 59.203125 C 100.804688 58.542969 98.511719 59.246094 96.835938 60.808594 L 96.421875 61.191406 L 97.496094 64.707031 L 99.269531 63.0625 C 100.109375 62.28125 101.085938 62.152344 102.191406 62.449219 L 103.527344 62.804688 L 102.886719 65.199219 C 102.804688 65.507812 102.90625 65.835938 103.152344 66.042969 C 103.246094 66.121094 103.355469 66.179688 103.46875 66.207031 C 103.652344 66.257812 103.851562 66.242188 104.03125 66.160156 L 109.882812 63.457031 C 110.105469 63.355469 110.269531 63.15625 110.332031 62.921875 C 110.394531 62.683594 110.351562 62.433594 110.210938 62.230469 Z M 110.210938 62.230469 "/>
<path style=" stroke:none;fill-rule:nonzero;fill:rgb(20%,81.960785%,47.843137%);fill-opacity:1;" d="M 91.050781 66.203125 L 89.460938 67.683594 C 88.621094 68.464844 87.179688 68.773438 86.078125 68.457031 L 81.828125 67.246094 L 80.972656 70.433594 L 85.304688 71.539062 C 87.527344 72.101562 90.035156 71.660156 91.710938 70.097656 L 92.121094 69.714844 Z M 91.050781 66.203125 "/>
</g>
</svg>
